<?xml version="1.0" standalone="no"?>
<!DOCTYPE svg PUBLIC "-//W3C//DTD SVG 20010904//EN"
 "http://www.w3.org/TR/2001/REC-SVG-20010904/DTD/svg10.dtd">
<svg version="1.0" xmlns="http://www.w3.org/2000/svg"
 width="851.000000pt" height="851.000000pt" viewBox="0 0 851.000000 851.000000"
 preserveAspectRatio="xMidYMid meet">
<metadata>
Created by potrace 1.11, written by Peter Selinger 2001-2013
</metadata>
<g transform="translate(0.000000,851.000000) scale(0.100000,-0.100000)"
fill="#000000" stroke="none">
<path d="M3970 8503 c-19 -1 -86 -8 -149 -14 -63 -6 -121 -12 -130 -14 -9 -1
-41 -6 -71 -10 -30 -4 -64 -9 -75 -11 -11 -2 -33 -7 -50 -10 -293 -52 -626
-152 -903 -271 -1121 -478 -1986 -1416 -2371 -2573 -96 -286 -150 -539 -196
-915 -23 -184 -23 -729 -1 -838 3 -12 8 -51 11 -87 46 -507 250 -1123 535
-1619 354 -616 849 -1123 1480 -1516 145 -91 391 -215 560 -285 58 -23 114
-46 125 -51 226 -97 727 -222 985 -245 36 -4 68 -8 72 -10 42 -25 799 -25 948
1 14 2 46 6 72 9 70 8 173 25 258 41 41 9 85 17 97 19 57 11 309 81 403 111
705 229 1320 626 1830 1182 94 102 113 124 213 253 362 462 623 998 767 1568
34 136 48 203 75 357 13 74 36 279 43 375 13 196 5 701 -13 770 -2 8 -6 42
-10 75 -12 125 -63 385 -105 545 -148 559 -402 1074 -749 1520 -587 755 -1395
1286 -2312 1519 -172 44 -166 43 -374 76 -239 39 -412 52 -680 52 -137 0 -266
-2 -285 -4z m532 -1427 c697 -73 1278 -346 1758 -827 424 -425 697 -967 794
-1579 21 -136 29 -536 14 -700 -46 -476 -246 -992 -539 -1387 -194 -262 -442
-497 -716 -679 -62 -41 -115 -74 -118 -74 -4 0 -19 -9 -34 -19 -43 -31 -256
-134 -360 -175 -263 -104 -504 -160 -814 -191 -32 -3 -137 -6 -235 -6 -656 -2
-1291 227 -1803 650 -101 83 -344 336 -422 439 -267 349 -446 736 -531 1142
-30 144 -34 170 -55 375 -13 137 -6 446 15 576 2 14 6 41 8 60 2 19 16 90 30
159 83 411 272 814 546 1170 96 125 359 385 485 481 457 348 986 551 1521 585
55 4 100 7 101 8 5 4 303 -3 355 -8z"/>
</g>
</svg>
